<?xml version="1.0" encoding="utf-8"?>
<!-- Generator: Adobe Illustrator 26.2.1, SVG Export Plug-In . SVG Version: 6.00 Build 0)  -->
<svg version="1.1" id="Calque_1" xmlns="http://www.w3.org/2000/svg" xmlns:xlink="http://www.w3.org/1999/xlink" x="0px" y="0px"
	 viewBox="0 0 118.38 49.52" style="enable-background:new 0 0 118.38 49.52;" xml:space="preserve">
<style type="text/css">
	.st0{fill:#FFFFFF;}
</style>
<g id="logo" transform="translate(4249.304 -87.386)">
	<g id="Groupe_100">
		<g id="Groupe_77">
			<g id="Groupe_76">
				<path id="Tracé_207" class="st0" d="M-4221.39,93.07c0.26-0.01,0.52,0,0.78,0.03c0.18,0,0.35-0.03,0.53-0.03
					c0.78,0,1.7,0.1,2.31,0.15c1.4,0.12,1.68,0.25,1.68,0.6v0.05c-0.05,0.4-0.35,0.53-1.5,0.53c-0.33,0-0.68,0-1.13-0.03
					c-0.62-0.06-1.24-0.08-1.85-0.07h-0.4c0,0.07-0.05,0.53-0.05,1.18c0,0.4,0.02,0.9,0.08,1.43c0.1,0.38,0.08,0.4,1.3,0.5h0.23
					c1.08,0,1.63,0.18,1.73,0.53c0.03,0.03,0.04,0.06,0.05,0.1c0,0.1-0.1,0.18-0.1,0.28c-0.79,0.43-1.65,0.74-2.53,0.9
					c-0.75,0.05-0.78,0.05-0.78,1.53c-0.02,0.43-0.02,0.85-0.02,1.28c0.01,1.79,0.15,3.57,0.4,5.34c0.18,0.9,0.02,1.03,0.43,1.03
					c0.94,0,1.88,0.09,2.81,0.25c0.33,0.22,0.5,0.43,0.5,0.65c0,0.2-0.15,0.38-0.48,0.6c-1.11,0.69-2.41,0.98-3.71,0.85h-0.45
					c-2.53-0.03-3.33-1.53-3.43-1.9c-0.37-1.07-0.6-2.18-0.7-3.31c-0.05-0.43-0.18-2.36-0.18-4.41c0-1.03,0.05-2.1,0.12-3.03
					c0.33-3.68,0.5-4.41,0.9-4.64C-4223.73,93.18-4222.56,93.05-4221.39,93.07z"/>
			</g>
		</g>
		<g id="Groupe_79">
			<g id="Groupe_78">
				<path id="Tracé_208" class="st0" d="M-4216.57,96.71c0-0.15,0.13-0.23,0.3-0.33c0.26-0.2,0.57-0.3,0.9-0.3
					c0.46,0.03,0.9,0.17,1.28,0.43c0.95,1.05,1.77,2.21,2.43,3.46c0.15,0.3,0.23,0.45,0.3,0.45s0.12-0.38,0.35-1.08
					c0.58-1.4,1.33-2.88,2.13-2.88c0.09,0.01,0.17,0.02,0.25,0.05c0.23,0.05,0.45,0.16,0.63,0.32c0.02,0.07,0.03,0.15,0.02,0.23
					c-0.25,1.44-0.67,2.86-1.23,4.21c-0.42,1.2-0.68,1.48-0.68,1.71s0.2,0.43,0.68,1.23c0.43,0.71,0.9,1.39,1.4,2.06
					c0.78,1.05,1.03,1.4,1.03,1.58c-0.01,0.09-0.05,0.17-0.12,0.22c-0.13,0.25-0.5,0.25-1.15,0.25c-0.18,0.02-0.37,0.03-0.55,0.03
					c-0.87,0-1.69-0.44-2.16-1.18c-0.4-0.6-0.5-0.9-0.58-0.9c-0.05,0-0.1,0.22-0.33,0.65c-0.38,0.5-1,1.4-1.65,1.4
					c-0.68,0-0.93-0.32-0.93-0.85c0.11-0.87,0.38-1.71,0.8-2.48c0.25-0.5,0.5-1.15,0.5-1.15c-0.13-0.12-1.4-2.58-1.65-2.96
					c-0.78-1.55-1.8-3.61-1.93-3.99C-4216.55,96.83-4216.56,96.77-4216.57,96.71z"/>
			</g>
		</g>
		<g id="Groupe_81">
			<g id="Groupe_80">
				<path id="Tracé_209" class="st0" d="M-4203.56,94.27c0.29-0.2,0.63-0.29,0.98-0.25c0.38-0.02,0.75,0.07,1.08,0.25
					c0.5,0.56,0.78,1.28,0.78,2.03c0,0.22,0,0.35,0.05,0.35c0.11-0.1,0.2-0.22,0.28-0.35c0.54-0.55,1.29-0.84,2.06-0.78h0.2
					c1.85,0,2.21,1.28,2.21,2.36c0,0.27-0.02,0.53-0.05,0.8c-0.15,2.21-2.23,5.04-4.11,5.67c-0.78,0.33-0.9,0.3-0.93,0.78
					s-0.05,1.05-0.05,1.63c0,2.21,0.2,4.76,0.2,4.89c-0.5,0.37-1.11,0.54-1.73,0.48c-0.14,0.02-0.28,0.03-0.43,0.03
					c-0.95,0-1.35-0.48-1.48-1.46c-0.24-1.47-0.34-2.95-0.27-4.44c-0.01-2.96,0.14-5.91,0.45-8.85
					C-4204.01,95.34-4203.88,94.74-4203.56,94.27z M-4198.72,98.15c0-0.35-0.03-0.71-0.1-1.05c-0.33,0-1.1,1.73-1.73,2.98
					c-0.24,0.73-0.4,1.49-0.45,2.26c0,0.18,0.02,0.28,0.1,0.28h0.02c0.77-0.91,1.4-1.92,1.88-3.01
					C-4198.79,99.15-4198.7,98.65-4198.72,98.15L-4198.72,98.15z"/>
			</g>
		</g>
		<g id="Groupe_83">
			<g id="Groupe_82">
				<path id="Tracé_210" class="st0" d="M-4193.7,88.03c0.29-0.07,0.58-0.1,0.88-0.1c0.45-0.02,0.89,0.06,1.3,0.25
					c0.38,0.2,0.65,0.54,0.78,0.95c0.3,0.63,0.5,5.6,0.5,11.07c-0.09,2.5,0.02,5.01,0.33,7.5c0.13,0.43,0.21,0.88,0.25,1.33
					c-0.01,0.13-0.04,0.26-0.1,0.38c-0.44,0.36-0.99,0.56-1.55,0.55c-0.74,0.01-1.45-0.24-2.03-0.7c-0.78-0.93-0.95-1.73-0.95-6.57
					c0-4.99-0.02-14.03,0.13-14.17C-4194.17,88.35-4193.85,88.18-4193.7,88.03z"/>
			</g>
		</g>
		<g id="Groupe_85">
			<g id="Groupe_84">
				<path id="Tracé_211" class="st0" d="M-4184.25,97.44c0.49-0.1,0.98-0.15,1.48-0.15c0.17,0,0.34,0.02,0.5,0.05
					c0.23,0.1,0.35,0.18,0.35,0.28c0,0.12-0.2,0.25-0.55,0.43c-0.46,0.19-0.86,0.52-1.15,0.93c-0.02,0.06-0.04,0.11-0.05,0.18
					c0,0.12,0.2,0.15,0.9,0.15c0.17-0.03,0.35-0.04,0.53-0.05c0.32,0.02,0.64,0.1,0.93,0.25c1.39,0.67,2.33,2.01,2.48,3.54
					c0.02,0.18,0.03,0.37,0.02,0.55c0,1.98-1.15,3.39-3.26,4.14c-0.64,0.17-1.3,0.24-1.96,0.22c-0.67,0.02-1.33-0.06-1.98-0.22
					c-1.57-0.67-2.57-2.23-2.51-3.93c-0.03-1.12,0.22-2.23,0.73-3.23C-4187.02,99.12-4185.77,98.02-4184.25,97.44z M-4182.22,103.33
					c-0.06-1-0.53-1.94-1.3-2.58c-0.21-0.27-0.46-0.51-0.73-0.73c-0.3,0.66-0.5,1.36-0.6,2.08c-0.15,0.6-0.24,1.21-0.28,1.83
					c0,0.3,0.05,0.6,0.15,0.88c0.28,0.68,0.83,1.45,1.1,1.45h0.05c0.69-0.31,1.2-0.93,1.35-1.68
					C-4182.32,104.18-4182.24,103.76-4182.22,103.33L-4182.22,103.33z"/>
			</g>
		</g>
		<g id="Groupe_87">
			<g id="Groupe_86">
				<path id="Tracé_212" class="st0" d="M-4175.91,97.85c0.15-0.03,0.3-0.05,0.45-0.05c0.52,0,1.04,0.1,1.53,0.28
					c0.63,0.69,1.01,1.57,1.08,2.51c0.02,0.22,0.06,0.44,0.12,0.65c0.02,0,0.05-0.07,0.1-0.2c0.45-0.55,0.65-1.48,1.83-2
					c0.37-0.16,0.77-0.25,1.18-0.25c0.54-0.02,1.07,0.17,1.48,0.53c0.06,0.07,0.09,0.16,0.1,0.25c0,0.18-0.15,0.28-0.53,0.5
					c-2.68,1-2.76,2.31-3.83,5.24c-0.14,0.64-0.18,1.3-0.13,1.96c0.05,0.53,0.08,0.88,0.08,1.1c0,0.47-0.1,0.53-0.4,0.75
					c-0.44,0.16-0.91,0.24-1.38,0.23c-0.53,0.03-1.06-0.05-1.55-0.23c-0.45-0.33-0.45-0.33-0.45-1.86c0.04-2.41-0.06-4.82-0.3-7.22
					c-0.11-0.49-0.19-0.98-0.25-1.48c0-0.22,0.1-0.28,0.25-0.38C-4176.34,98.05-4176.13,97.95-4175.91,97.85z"/>
			</g>
		</g>
		<g id="Groupe_89">
			<g id="Groupe_88">
				<path id="Tracé_213" class="st0" d="M-4165.04,97.45c0.69-0.39,1.46-0.61,2.26-0.65c0.82-0.01,1.59,0.4,2.06,1.08
					c0.29,0.33,0.46,0.76,0.48,1.2c0,0.95-0.88,1.83-2.41,2.31c-0.68,0.28-1,0.22-1,1.33c0.05,1.12,0.38,2.2,0.95,3.16
					c0.19,0.4,0.61,0.64,1.05,0.6c0.18,0,0.35-0.01,0.53-0.03c0.32-0.22,0.68-0.38,1.05-0.48c0.2,0,0.33,0.15,0.33,0.6
					c0,0.98-1.38,1.86-2.73,1.86c-1.75,0-2.71-0.28-3.51-1.23c-0.99-1.14-1.51-2.62-1.43-4.14c-0.05-1.74,0.4-3.47,1.3-4.96
					C-4165.8,97.82-4165.43,97.6-4165.04,97.45z M-4162.25,98.13c-0.16-0.21-0.41-0.33-0.68-0.33c-0.39,0-0.74,0.24-0.88,0.6
					c-0.13,0.52-0.19,1.05-0.17,1.58c0,0.19,0.02,0.39,0.05,0.58c0.1,0.08,0.23,0.11,0.35,0.1c0.14,0,0.27-0.03,0.4-0.07
					c0.8-0.43,1.05-0.8,1.05-1.48C-4162.13,98.68-4162.13,98.26-4162.25,98.13L-4162.25,98.13z"/>
			</g>
		</g>
		<g id="Groupe_91">
			<g id="Groupe_90">
				<path id="Tracé_214" class="st0" d="M-4246.25,102.1c0.46-0.18,0.95-0.25,1.44-0.19h0.72c1.77,0,2.87,0.43,3.3,1.53
					c0.24,0.43,0.24,0.67,1.53,0.67c3.51-0.11,6.92,1.22,9.42,3.68c3.35,2.78,4.12,7.32,4.12,10.62c0.01,1.3-0.12,2.6-0.38,3.88
					c-1.54,5.32-5.81,9.41-11.19,10.72c-1.53,0.24-1.72,0.24-1.72,0.91c-0.34,0.66-0.87,1.19-1.53,1.53
					c-0.72,0.25-1.48,0.37-2.25,0.33c-0.81,0.02-1.62-0.09-2.39-0.33c-0.9-0.53-1.53-1.42-1.72-2.44
					c-0.67-3.68-0.97-7.41-0.91-11.15c-0.05-1.48-0.09-3.54-0.09-5.74c0-5.36,0.14-11.58,0.33-12.49
					C-4247.35,102.76-4247.11,102.33-4246.25,102.1z M-4236.2,106.5c-0.87-0.45-1.84-0.68-2.82-0.67c-0.19-0.05-0.38-0.08-0.57-0.1
					c-0.72,0-0.77,0.76-0.77,4.93v1.53c0,4.07,0.05,13.06,1.1,18.18c4.74-1.86,7.46-5.88,7.89-8.08c0.36-1.5,0.52-3.05,0.48-4.59
					c0-3.11-0.43-6.51-1.15-7.46C-4233.17,108.72-4234.58,107.45-4236.2,106.5z"/>
			</g>
		</g>
		<g id="Groupe_93">
			<g id="Groupe_92">
				<path id="Tracé_215" class="st0" d="M-4218.54,113.29c1.32-0.75,2.79-1.17,4.3-1.24c1.57-0.01,3.04,0.76,3.92,2.06
					c0.56,0.64,0.89,1.45,0.91,2.3c0,1.82-1.67,3.49-4.59,4.4c-1.29,0.53-1.91,0.43-1.91,2.53c0.09,2.13,0.72,4.2,1.82,6.03
					c0.37,0.76,1.17,1.22,2.01,1.15c0.33,0.01,0.67-0.01,1-0.05c0.61-0.42,1.29-0.73,2.01-0.91c0.38,0,0.62,0.29,0.62,1.15
					c0,1.87-2.63,3.54-5.21,3.54c-3.35,0-5.17-0.53-6.7-2.35c-1.9-2.18-2.87-5.01-2.73-7.89c0-4.5,1.67-8.75,2.49-9.47
					C-4220.01,113.99-4219.3,113.57-4218.54,113.29z M-4213.23,114.58c-0.31-0.4-0.79-0.63-1.29-0.62
					c-0.74-0.01-1.41,0.45-1.67,1.15c-0.25,0.98-0.37,2-0.34,3.01c0,0.37,0.03,0.74,0.1,1.1c0.19,0.15,0.43,0.22,0.67,0.19
					c0.26,0,0.52-0.05,0.77-0.14c1.53-0.81,2.01-1.53,2.01-2.82C-4212.99,115.63-4212.99,114.82-4213.23,114.58L-4213.23,114.58z"/>
			</g>
		</g>
		<g id="Groupe_95">
			<g id="Groupe_94">
				<path id="Tracé_216" class="st0" d="M-4202.25,112.68c0.74-0.13,1.5-0.03,2.17,0.31c0.74,0.13,1.12,0.85,1.25,1.73
					c0.41,2.65,0.76,3.51,0.85,3.5c0.05-0.01,0.07-0.2,0.12-0.5c0.26-1.5,0.88-2.92,1.81-4.14c0.46-0.66,1.15-1.12,1.94-1.3
					c1.28-0.19,2.38,1.05,3.04,2.26c0.35,0.72,0.55,1.08,0.74,1.05c0.14-0.02,0.29-0.33,0.54-0.95c0.95-2.41,2.29-3.82,3.8-4.04
					c0.14-0.02,0.29,0.01,0.43-0.02c0.75,0.13,1.3,0.29,2.53,2.04c0.61,0.88,2.35,7.68,2.95,11.75c0.6,4.07,0.6,4.07-0.07,4.41
					c-0.64,0.36-1.35,0.58-2.08,0.65c-0.72,0.14-1.46,0.13-2.18-0.02c-0.66-0.24-0.92-0.3-1.13-1.77c-0.1-0.71-0.21-1.76-0.35-3.38
					c-0.39-2.65-0.59-5.28-0.62-5.52l-0.04-0.28c-0.02-0.14-0.03-0.19-0.07-0.18c-0.29,0.04-1.09,4.75-1.31,7.5
					c-0.47,1.19-1.56,2.02-2.83,2.16c-1.2,0.25-2.44-0.13-3.29-1.01c-0.14-1.28-0.34-2.61-0.51-3.75c-0.35-2.37-0.66-4.11-0.66-4.11
					c-0.59,0.69-1.03,1.5-1.29,2.37c-0.63,0.86-0.85,1.95-0.62,2.99c0.07,0.47,0.16,1.09,0.33,1.93c0.37,2.17,1.7,4.97,1.82,5.73
					l0.01,0.1c-0.29,1.3-1.78,2-3.16,2.21c-0.72,0.15-1.46,0.09-2.15-0.16c-2.46-1.23-2.93-4.74-3.58-7.55
					c-0.11-0.47-0.2-0.94-0.26-1.41c-0.6-4.02-0.96-10.19-0.65-11.06C-4204.2,113.37-4203.28,112.81-4202.25,112.68z"/>
			</g>
		</g>
		<g id="Groupe_97">
			<g id="Groupe_96">
				<path id="Tracé_217" class="st0" d="M-4167.99,110.16c0.52-0.17,1.06-0.28,1.61-0.31c0.46,0.01,0.92,0.12,1.34,0.31
					c0.43,0.08,0.63,0.24,0.63,0.39c0,0.24-0.35,0.47-1.02,0.59c-1.97,0.19-3.5,1.57-5.27,5.08c-1.85,3.5-2.32,5.82-2.32,7.04
					c0,0.67,0.12,1.02,0.28,1.02c0.04,0,0.04,0,0.08-0.04c2.33-2.01,3.85-4.79,4.29-7.83c0.98-2.75,0.98-2.91,1.77-3.5
					c0.46-0.42,1.07-0.65,1.69-0.63c0.52-0.01,1.03,0.14,1.46,0.43c0.47,0.28,0.59,0.95,0.59,1.93s-0.12,2.32-0.12,3.94
					c0,2.56,0.12,6.46,0.32,8.42c0,0.12,0.04,0.28,0.04,0.39c0,1.22-0.94,1.53-2.21,1.53c-0.3,0.03-0.6,0.05-0.9,0.04
					c-1.69,0-2.48-0.51-2.48-1.77c0-0.12,0.04-0.24,0.04-0.39c0-0.47,0-0.71-0.16-0.71s-0.51,0.28-1.22,0.9
					c-1.3,1.14-2.05,1.58-3.5,1.58c-0.33,0.01-0.66-0.01-0.98-0.04c-3.42-0.71-3.94-2.36-3.94-3.94c0-0.24,0.04-0.51,0.04-0.75
					c0.38-4.11,2.26-7.93,5.27-10.75C-4171.28,111.88-4169.7,110.89-4167.99,110.16z"/>
			</g>
		</g>
		<path id="Tracé_218" class="st0" d="M-4153.44,123.16c-0.61,0.35-1.32,0.51-2.03,0.44c-0.47,0.03-0.94-0.11-1.33-0.39
			c-0.97-0.81-1.19-2.45-1.01-6.56c0.05-1.1,0.1-2.34,0.21-3.82c0.07-0.55,0.11-1.11,0.12-1.67c0.06-1.43,0.17-7.04,0.1-8.91
			c0.02-1.63,0.02-2.68,0.05-3.4c0.05-1.24,0.16-1.48,0.46-1.85c0.91-0.49,1.92-0.76,2.96-0.78c1.72,0.07,2.38,1.44,2.71,2.56
			c0.48,1.12,0.58,7.5,0.42,11.18c-0.11,2.49-0.37,5.35-0.8,8.49C-4151.89,122.65-4152.76,122.85-4153.44,123.16z M-4155.53,131.5
			c-0.62,0.02-1.01,0.05-1.29,0.04c-0.33,0-0.65-0.15-0.84-0.42c-0.25-0.47-0.36-1.01-0.32-1.55c0.01-0.69,0.23-1.36,0.61-1.94
			c0.85-0.59,1.88-0.87,2.91-0.79c0.73,0.01,1.44,0.24,2.03,0.66c0.31,0.22,0.46,0.6,0.39,0.97c-0.02,0.27-0.07,0.54-0.13,0.81
			C-4152.51,131.48-4154.37,131.45-4155.53,131.5z"/>
		<g id="Groupe_99">
			<g id="Groupe_98">
				<path id="Tracé_219" class="st0" d="M-4147.68,112.81c0.51-0.18,1.04-0.27,1.58-0.24c0.79,0,1.57,0.15,2.3,0.43
					c0.91,0.24,1.39,2.3,1.82,6.12c0.14,0.91,0.19,1.29,0.29,1.29s0.19-0.24,0.38-0.62c0.77-1.39,1.96-2.5,3.4-3.16
					c0.6-0.32,1.28-0.48,1.96-0.48c1.16,0.01,2.25,0.52,3.01,1.39c0.91,1.58,1.34,3.4,1.34,8.85c0.05,1.53,0.14,2.68,0.14,3.49
					c0,1.96-0.29,2.3-1.24,2.58c-0.56,0.25-1.16,0.36-1.77,0.34c-1.29,0-2.77-0.38-3.21-1.01c-0.17-0.36-0.24-0.75-0.19-1.15
					c0-2.06,0.72-6.12,0.72-7.75c0.1-1.19,0.1-2.01,0.1-2.58c0-0.72-0.05-1-0.14-1s-0.19,0.09-0.29,0.29
					c-1.62,2.14-3.06,4.41-4.31,6.79c-0.21,0.88-0.27,1.78-0.19,2.68v1.82c0,4.07-1.82,4.26-4.16,4.59
					c-2.15-0.29-2.92,0.86-2.92-7.18c0-1.2,0-2.58,0.05-4.21c0.1-5.64,0.19-10.62,0.43-10.86
					C-4148.59,113-4148.11,112.81-4147.68,112.81z"/>
			</g>
		</g>
	</g>
</g>
</svg>
